<svg width="150" height="123" viewBox="0 0 150 123" fill="none" xmlns="http://www.w3.org/2000/svg">
<g clip-path="url(#clip0_7286_191)">
<path d="M149.984 0H0V122.048H149.984V0Z" fill="#121212"/>
<path d="M75.0147 122.019C50.5831 122.019 26.1516 122.021 1.72004 122.015C-0.225061 122.015 0.0165178 122.242 0.0162889 120.32C0.0119382 81.0076 0.0129661 41.6957 0.0144545 2.38374C0.0144545 0.0916235 0.0210962 0.0908275 2.26444 0.0907131C40.8382 0.0889957 79.4122 0.0889955 117.986 0.0847593C128.193 0.0836144 138.4 0.087388 148.607 0.0342639C149.693 0.0286538 149.977 0.301491 149.976 1.38802C149.949 32.2553 149.957 63.1227 149.961 93.99C149.962 102.844 149.946 111.699 150 120.553C150.007 121.702 149.789 122.07 148.554 122.068C125.926 122.026 103.299 122.036 80.6713 122.035C78.7858 122.035 76.9002 122.035 75.0147 122.035C75.0147 122.029 75.0147 122.024 75.0147 122.019ZM145.812 61.9196H145.838C145.838 43.5953 145.826 25.2711 145.866 6.94692C145.869 5.81803 145.533 5.61618 144.492 5.62385C134.942 5.69427 125.392 5.73262 115.842 5.73434C105.266 5.73629 94.6901 5.70171 84.1146 5.64515C83.1757 5.64012 82.8533 5.84803 82.8682 6.8472C82.9306 11.0277 82.94 15.2101 82.8842 19.3908C82.8704 20.4318 83.199 20.7651 84.2104 20.923C90.0148 21.8296 94.2672 26.6069 94.6386 32.4766C94.6903 33.2918 94.4538 33.5461 93.6387 33.5364C90.4826 33.4991 87.3253 33.5499 84.1694 33.5031C83.2452 33.4894 82.8033 33.6891 82.9007 34.7184C82.9892 35.6529 82.8414 36.6105 82.9393 37.5432C83.0553 38.6475 82.6559 38.8945 81.5829 38.8897C71.7854 38.8462 61.9878 38.8633 52.1901 38.8658C49.8911 38.8664 49.949 38.8738 49.8751 41.2089C49.8429 42.225 50.1971 42.4154 51.1192 42.4031C54.6851 42.3558 58.2522 42.4075 61.8183 42.3701C62.6511 42.3614 63.0621 42.5696 62.9516 43.4629C62.8463 44.3152 62.8271 45.1802 62.6875 46.026C61.7372 51.7784 56.6051 56.6842 51.0447 57.0705C50.0473 57.1398 49.8632 57.4582 49.8712 58.3753C49.9152 63.4171 49.8954 68.4596 49.8834 73.5018C49.8825 73.9056 50.0661 74.6348 49.3972 74.5253C47.7358 74.2536 46.2686 75.1495 44.6484 75.1195C41.3292 75.0582 38.0077 75.1261 34.6873 75.1036C33.9339 75.0986 33.559 75.2139 33.6799 76.116C34.1508 79.628 35.5869 82.5998 38.3042 84.9347C41.263 87.4769 44.784 88.1332 48.5198 88.0057C49.6433 87.9673 49.9487 88.2881 49.9419 89.4277C49.8874 98.6511 49.9139 107.875 49.8819 117.099C49.8792 117.904 49.9986 118.239 50.9209 118.215C53.8297 118.139 56.7416 118.142 59.6516 118.173C60.4452 118.181 60.6715 117.932 60.7447 117.141C61.4822 109.171 68.0524 103.13 76.0602 102.94C77.1084 102.915 77.3806 103.242 77.3656 104.253C77.3028 108.475 77.3502 112.698 77.2795 116.919C77.2625 117.938 77.5349 118.247 78.5675 118.241C84.593 118.208 90.6191 118.254 96.6449 118.253C112.55 118.248 128.455 118.217 144.361 118.252C145.564 118.255 145.841 117.943 145.839 116.77C145.801 98.4865 145.812 80.2031 145.812 61.9196ZM5.44823 34.6591C5.45406 34.6591 5.4599 34.6591 5.46574 34.6591C5.46574 43.9614 5.47891 53.2637 5.44628 62.5658C5.44284 63.541 5.73789 63.7989 6.69962 63.7915C13.6657 63.7375 20.6325 63.7166 27.5988 63.7537C28.6174 63.7591 28.8788 63.4344 29.0098 62.4814C29.8771 56.1669 35.5502 51.2317 41.8192 51.2064C42.7121 51.2027 43.0372 51.4151 43.017 52.365C42.9527 55.3963 42.9869 58.4295 42.9742 61.462C42.9644 63.8071 42.9573 63.779 45.2981 63.6736C45.9904 63.6424 46.2239 63.4258 46.2034 62.7354C46.1539 61.0565 46.1945 59.375 46.1432 57.6962C46.1208 56.9618 46.3204 56.6772 47.1094 56.728C48.1689 56.7961 49.2379 56.7392 50.3021 56.7103C56.5856 56.5404 62.3526 50.7186 62.4972 44.4179C62.5083 43.9324 62.5413 43.5589 61.8509 43.5336C57.0536 43.3576 52.231 44.0066 47.4505 42.9622C46.5013 42.7548 46.1705 42.6537 46.1768 41.6372C46.2234 34.1382 46.2079 26.6388 46.2112 19.1395C46.2131 15.0415 46.1816 10.9431 46.2373 6.84594C46.2507 5.85707 45.9481 5.57062 44.9915 5.63691C43.5219 5.73869 42.0442 5.75724 40.57 5.75403C29.3021 5.72965 18.034 5.70858 6.76648 5.63038C5.65751 5.62271 5.41868 5.93482 5.42361 6.99844C5.46643 16.2186 5.44823 25.4389 5.44823 34.6591ZM5.4638 92.9472H5.45784C5.45784 100.774 5.45773 108.602 5.45784 116.429C5.45784 118.198 5.45841 118.22 7.25135 118.223C14.6277 118.237 22.004 118.243 29.3803 118.24C34.6665 118.237 39.9527 118.206 45.2388 118.211C45.9245 118.212 46.263 118.1 46.2583 117.278C46.2052 107.935 46.1847 98.5909 46.1768 89.247C46.1762 88.5724 45.9715 88.3677 45.2826 88.2952C38.5834 87.5902 33.5241 82.124 33.1948 75.37C33.1442 74.3331 33.3373 73.9242 34.4828 73.9498C37.4317 74.0154 40.3836 73.9385 43.3343 73.9342C46.1564 73.9301 46.179 73.9385 46.1636 71.1506C46.1578 70.1014 46.6248 68.7794 45.9282 68.079C45.3382 67.4857 44.0512 67.9346 43.0737 67.8964C42.951 67.8916 42.8278 67.8926 42.705 67.8974C42.2278 67.9163 42.0181 67.6689 42.0789 67.2168C42.3264 65.3741 41.766 63.5764 41.8032 61.7397C41.8637 58.7491 41.7821 55.7554 41.8597 52.7655C41.886 51.7571 41.5275 51.5888 40.658 51.7199C35.7269 52.4637 32.2347 55.0677 30.203 59.647C29.2209 61.8607 29.1838 64.1896 29.2906 66.5205C29.3446 67.6988 28.9326 67.919 27.8459 67.9132C20.7971 67.8752 13.7479 67.922 6.69904 67.8998C5.78769 67.897 5.43277 68.0717 5.43861 69.0962C5.48429 77.0463 5.4638 84.9969 5.4638 92.9472ZM64.0662 35.8947C64.0662 35.8915 64.0662 35.8884 64.0662 35.8852C68.5741 35.8852 73.0819 35.8879 77.5898 35.884C79.4536 35.8824 79.4415 35.8753 79.5439 34.0478C79.5665 33.646 79.3826 32.9139 80.0296 32.9997C81.3663 33.1767 82.5327 32.4682 83.826 32.4813C86.9408 32.5127 90.0561 32.4718 93.1708 32.5042C93.948 32.5122 94.3004 32.3536 94.1378 31.4812C93.4129 27.5931 91.459 24.5934 87.9688 22.6245C85.7043 21.347 83.2485 21.0739 80.7318 21.1431C79.7828 21.1692 79.4591 20.9287 79.4711 19.9188C79.5233 15.5339 79.4664 11.1477 79.4962 6.76247C79.5017 5.94809 79.3391 5.62672 78.4335 5.62901C68.8427 5.65397 59.2517 5.6511 49.6611 5.60359C48.6339 5.59855 48.4642 5.95405 48.4672 6.87456C48.4978 16.1374 48.4985 25.4006 48.4654 34.6634C48.4621 35.6076 48.6756 35.9299 49.6804 35.9187C54.4751 35.8651 59.2708 35.8947 64.0662 35.8947ZM76.1774 111.074C76.1774 108.82 76.1548 106.566 76.19 104.313C76.2021 103.55 75.9419 103.309 75.1855 103.39C72.2744 103.704 69.5781 104.59 67.2463 106.392C62.451 110.096 60.7176 115.114 61.0427 121.009C61.0857 121.79 61.5806 121.695 62.0621 121.694C66.4876 121.689 70.9131 121.655 75.3382 121.688C76.2599 121.695 76.4657 121.301 76.3997 120.517C76.1347 117.374 76.1959 114.223 76.1774 111.074ZM103.162 5.33568C103.162 5.34209 103.162 5.3485 103.162 5.3548C108.319 5.3548 113.476 5.34049 118.634 5.36992C119.431 5.3745 119.808 5.24283 119.789 4.31762C119.77 3.44451 119.475 3.22125 118.64 3.22286C108.366 3.24266 98.0925 3.24151 87.8189 3.20785C86.9119 3.20488 86.7518 3.53507 86.755 4.34739C86.7582 5.16142 87.0103 5.36155 87.813 5.35549C92.929 5.31644 98.0454 5.33568 103.162 5.33568ZM31.9752 5.36064V5.38217C34.92 5.38217 37.8648 5.3777 40.8095 5.38572C41.4369 5.38743 42.0504 5.50043 41.9786 4.50184C41.9235 3.73543 41.9052 3.2303 40.865 3.23774C34.8532 3.28102 28.8407 3.26579 22.8287 3.22125C21.9896 3.21507 21.8072 3.48103 21.8154 4.26301C21.8237 5.06823 21.9856 5.4022 22.8961 5.38377C25.9214 5.32263 28.9486 5.36064 31.9752 5.36064ZM103.297 1.715V1.70401C108.092 1.70401 112.887 1.71019 117.682 1.69416C118.144 1.69267 118.846 1.98325 118.84 1.06835C118.834 0.187795 118.147 0.543524 117.757 0.542837C108.085 0.527037 98.4126 0.532417 88.7407 0.550049C88.3276 0.55085 87.6586 0.254548 87.6968 1.13109C87.7319 1.93929 88.3527 1.70619 88.7892 1.70733C93.6251 1.7197 98.4613 1.715 103.297 1.715ZM103.21 2.80496V2.81572C107.963 2.81572 112.715 2.81641 117.467 2.81423C117.794 2.81412 118.122 2.80176 118.449 2.77829C118.619 2.76592 118.758 2.68017 118.768 2.48255C118.779 2.238 118.653 2.10416 118.412 2.09305C118.167 2.08183 117.921 2.08183 117.675 2.08183C108.089 2.08275 98.5023 2.08401 88.9158 2.08675C88.6294 2.08675 88.3362 2.07027 88.0598 2.12752C87.9469 2.15087 87.8167 2.33944 87.7906 2.47179C87.7538 2.65796 87.9231 2.75344 88.095 2.76432C88.4626 2.78767 88.8314 2.80301 89.1997 2.80324C93.8701 2.80565 98.5403 2.80485 103.211 2.80485L103.21 2.80496ZM31.7822 1.71157V1.69863C34.4873 1.69863 37.1925 1.70733 39.8975 1.68981C40.3371 1.68695 40.9895 1.89659 40.9753 1.08965C40.9625 0.36091 40.3623 0.563217 39.9609 0.562187C34.5507 0.548334 29.1405 0.549248 23.7302 0.55211C23.3079 0.552339 22.7743 0.393999 22.8072 1.15044C22.8395 1.89098 23.3808 1.70413 23.7898 1.70584C26.4539 1.71695 29.1181 1.71157 31.7822 1.71157ZM31.8405 2.80405C31.8405 2.80725 31.8405 2.81034 31.8405 2.81343C34.5451 2.81343 37.2498 2.82133 39.9544 2.8029C40.2727 2.80072 40.8207 2.99994 40.8254 2.44374C40.8293 1.99894 40.3383 2.11286 40.0344 2.1124C34.5841 2.10519 29.1338 2.1045 23.6835 2.11034C23.3793 2.11068 22.8891 1.99081 22.8788 2.42393C22.8657 2.97555 23.4108 2.79214 23.7263 2.79409C26.4309 2.81115 29.1357 2.80405 31.8405 2.80405ZM76.8754 103.817C76.817 103.821 76.7586 103.825 76.7002 103.829V117.605C76.7586 117.605 76.817 117.604 76.8754 117.604V103.817ZM45.6479 74.6287C45.6644 74.5747 45.681 74.5206 45.6975 74.4665H33.9507C33.9515 74.5205 33.9524 74.5746 33.9532 74.6287H45.6479ZM83.0838 32.9413C83.0836 33.0019 83.0834 33.0623 83.0832 33.1229H93.8593C93.8595 33.0623 93.8599 33.0019 93.8601 32.9413H83.0838ZM49.9246 42.8912C49.9249 42.9304 49.925 42.9696 49.9252 43.0088H62.1527C62.1525 42.9696 62.1523 42.9304 62.1521 42.8912H49.9246ZM42.4659 52.0219C42.4146 52.0093 42.3634 51.9967 42.3121 51.9841V63.3141C42.3634 63.3145 42.4146 63.315 42.4659 63.3155V52.0219ZM77.0918 121.594C77.3896 120.597 77.4459 119.61 77.0301 118.645C76.8121 119.638 76.6731 120.628 77.0918 121.594ZM42.6463 64.2378V67.4017C42.7461 67.3984 42.8459 67.3952 42.9457 67.3919C43.0393 66.3354 43.073 65.2801 42.6463 64.2378ZM60.3372 118.704V121.583C60.4468 121.579 60.5564 121.575 60.666 121.57C60.6416 120.616 60.8119 119.662 60.3372 118.704ZM49.3673 88.6497C48.4385 88.3785 47.5196 88.3257 46.6123 88.6803C47.5342 88.9136 48.4531 88.9955 49.3673 88.6497ZM49.3609 57.3511C48.46 57.124 47.5588 57.0228 46.6794 57.3801C47.5774 57.6587 48.47 57.694 49.3609 57.3511ZM46.6842 73.8885C47.5913 74.2128 48.4827 74.1561 49.3652 73.8767C48.4606 73.6125 47.5595 73.4339 46.6842 73.8885ZM46.7702 42.3173C47.6374 42.5443 48.5022 42.7086 49.3331 42.2243C48.4725 42.0121 47.6164 41.9508 46.7702 42.3173Z" fill="#F5F5F5"/>
<path d="M94.3957 65.3389C97.9605 65.3389 101.526 65.364 105.09 65.3206C105.938 65.3103 106.22 65.543 106.211 66.4117C106.164 70.5087 106.161 74.6065 106.185 78.7037C106.19 79.5715 105.981 79.8904 105.023 79.8848C97.8517 79.8427 90.6809 79.8513 83.5104 79.8894C82.6316 79.8941 82.4145 79.6231 82.4216 78.7799C82.4562 74.6417 82.4509 70.503 82.4074 66.3649C82.3988 65.5418 82.6684 65.3354 83.4555 65.3433C87.1019 65.3798 90.7488 65.3594 94.3956 65.3594L94.3957 65.3389Z" fill="#F5F5F5"/>
<path d="M97.0674 109.328C96.4618 108.878 95.9765 109.021 95.6032 108.53C96.7003 108.493 97.8813 108.557 98.5802 108.887C100.336 109.716 102.058 109.12 103.773 109.292C104.655 109.381 104.994 109.601 104.968 110.519C104.909 112.647 104.92 114.778 104.947 116.908C104.956 117.63 104.753 117.909 103.974 117.9C100.124 117.857 96.2735 117.85 92.4234 117.882C91.6097 117.888 91.3668 117.634 91.3869 116.831C91.44 114.702 91.4564 112.57 91.3973 110.442C91.3705 109.479 91.7395 109.265 92.6213 109.31C94.0036 109.38 95.392 109.329 97.0675 109.329L97.0674 109.328Z" fill="#F5F5F5"/>
<path d="M123.263 109.179C123.262 110.692 123.232 112.207 123.276 113.72C123.297 114.422 123.05 114.644 122.361 114.635C119.948 114.605 117.533 114.607 115.12 114.635C114.474 114.643 114.267 114.412 114.272 113.782C114.294 110.673 114.294 107.564 114.275 104.454C114.271 103.828 114.471 103.592 115.119 103.6C117.533 103.629 119.947 103.632 122.361 103.599C123.057 103.589 123.292 103.826 123.276 104.515C123.239 106.069 123.264 107.624 123.263 109.179Z" fill="#F5F5F5"/>
<path d="M132.541 109.161C132.541 110.678 132.512 112.195 132.554 113.711C132.573 114.403 132.345 114.645 131.646 114.636C129.269 114.603 126.891 114.607 124.514 114.631C123.878 114.637 123.655 114.42 123.661 113.778C123.689 110.704 123.692 107.629 123.673 104.556C123.669 103.906 123.813 103.591 124.555 103.604C126.89 103.643 129.227 103.642 131.563 103.603C132.33 103.591 132.564 103.885 132.548 104.612C132.513 106.127 132.537 107.645 132.537 109.161H132.541Z" fill="#F5F5F5"/>
<path d="M136.301 74.292C134.871 74.292 133.439 74.2634 132.01 74.3042C131.303 74.3243 131.104 74.0588 131.114 73.3757C131.144 71.128 131.15 68.8788 131.093 66.6319C131.073 65.8405 131.371 65.6779 132.084 65.6858C134.986 65.7181 137.889 65.7191 140.791 65.6908C141.468 65.6843 141.733 65.8786 141.722 66.5848C141.686 68.8734 141.686 71.1628 141.71 73.4516C141.716 74.104 141.458 74.2992 140.838 74.2869C139.326 74.257 137.814 74.2771 136.301 74.2771V74.292Z" fill="#F5F5F5"/>
<path d="M136.362 65.3139C134.887 65.3139 133.412 65.2957 131.938 65.3225C131.307 65.334 131.084 65.106 131.092 64.4641C131.122 62.1704 131.115 59.876 131.09 57.5822C131.084 56.9974 131.297 56.7891 131.874 56.7917C134.906 56.8054 137.937 56.8054 140.968 56.7833C141.583 56.7788 141.72 57.0512 141.715 57.6006C141.692 59.9355 141.685 62.2707 141.707 64.6055C141.713 65.2101 141.485 65.3715 140.908 65.3583C139.393 65.3238 137.877 65.3467 136.362 65.3467C136.362 65.3358 136.362 65.3248 136.362 65.3139Z" fill="#F5F5F5"/>
<path d="M136.39 56.4014C134.956 56.4014 133.522 56.3698 132.09 56.4148C131.373 56.4373 131.073 56.2635 131.091 55.4722C131.142 53.2616 131.127 51.0489 131.1 48.8376C131.093 48.2109 131.288 47.9623 131.938 47.9669C134.927 47.9877 137.917 47.9909 140.907 47.9591C141.602 47.9517 141.709 48.2643 141.704 48.8492C141.682 51.0607 141.661 53.2732 141.712 55.4838C141.73 56.298 141.383 56.4255 140.69 56.4061C139.258 56.3658 137.824 56.3939 136.39 56.3939V56.4014Z" fill="#F5F5F5"/>
<path d="M140.365 18.9677C140.454 20.2894 139.849 20.6266 138.559 20.5465C136.608 20.4254 134.638 20.4928 132.684 20.6019C131.608 20.6619 130.925 20.5434 131.15 19.2439C131.176 19.0932 131.105 18.9256 131.079 18.766C131.042 17.263 131.004 15.7601 130.967 14.2571C131.036 14.1619 131.176 14.0567 131.164 13.9728C130.968 12.5749 131.343 11.625 132.958 11.6045C133.53 11.6308 134.102 11.6803 134.675 11.6788C136.271 11.6748 137.867 11.6518 139.463 11.6317C140.196 11.6224 140.546 11.8353 140.498 12.7084C140.383 14.7909 140.401 16.8808 140.365 18.9677Z" fill="#F5F5F5"/>
<path d="M142.083 61.1704C142.082 57.1157 142.112 53.0605 142.059 49.0064C142.047 48.068 142.425 47.8648 143.21 47.9756C143.916 48.0754 144.909 47.5538 144.902 49.01C144.865 57.0376 144.862 65.0655 144.903 73.093C144.911 74.5113 144.001 74.2137 143.177 74.3137C142.154 74.4379 142.066 73.9074 142.072 73.0885C142.101 69.1159 142.085 65.143 142.084 61.1703L142.083 61.1704Z" fill="#F5F5F5"/>
<path d="M123.471 114.945C126.131 114.944 128.792 114.971 131.451 114.929C132.274 114.915 132.616 115.11 132.588 116.011C132.522 118.157 132.769 117.835 130.755 117.841C125.639 117.857 120.523 117.805 115.408 117.886C114.082 117.906 114.215 117.184 114.214 116.351C114.214 115.549 114.099 114.859 115.369 114.911C118.066 115.022 120.77 114.945 123.471 114.945Z" fill="#F5F5F5"/>
<path d="M136.216 110.736C136.216 112.698 136.181 114.661 136.231 116.622C136.256 117.573 135.927 117.998 134.959 117.898C134.554 117.856 134.143 117.863 133.734 117.87C133.157 117.881 132.94 117.586 132.94 117.038C132.941 112.786 132.934 108.535 132.929 104.283C132.928 103.629 133.24 103.367 133.904 103.316C136.012 103.153 136.181 103.274 136.191 105.339C136.2 107.138 136.193 108.937 136.193 110.736H136.216Z" fill="#F5F5F5"/>
<path d="M113.826 110.65C113.826 112.652 113.796 114.654 113.839 116.655C113.858 117.526 113.617 117.98 112.667 117.856C112.306 117.808 111.932 117.832 111.565 117.854C110.958 117.89 110.652 117.65 110.653 117.014C110.663 112.765 110.665 108.516 110.661 104.267C110.66 103.665 110.918 103.406 111.526 103.334C113.609 103.088 113.845 103.277 113.848 105.38C113.85 107.137 113.848 108.893 113.848 110.65H113.826Z" fill="#F5F5F5"/>
<path d="M137.845 77.8287C135.84 77.8287 133.835 77.8059 131.83 77.8399C131.031 77.8535 130.771 77.5406 130.756 76.7559C130.715 74.6465 130.685 74.6429 132.78 74.6418C136.381 74.6398 139.982 74.6836 143.581 74.6227C144.774 74.6024 145.046 75.1112 144.989 76.16C144.938 77.0993 145.03 77.9336 143.612 77.8492C141.696 77.735 139.768 77.8209 137.845 77.8209V77.8287Z" fill="#F5F5F5"/>
<path d="M137.849 47.5644C135.886 47.5644 133.922 47.5161 131.962 47.584C130.923 47.6201 130.674 47.1433 130.786 46.2613C130.882 45.5053 130.396 44.4562 131.889 44.4739C135.854 44.5211 139.821 44.5162 143.786 44.4876C145.431 44.4757 144.812 45.7074 144.967 46.5019C145.136 47.3725 144.689 47.6369 143.857 47.6205C141.855 47.581 139.852 47.6077 137.849 47.6077V47.5644Z" fill="#F5F5F5"/>
<path d="M144.879 114.54C144.879 116.597 143.841 117.626 141.765 117.626C140.004 117.627 139.124 116.764 139.125 115.037C139.126 114.056 139.154 113.072 139.098 112.094C139.055 111.331 139.357 111.09 140.091 111.116C141.357 111.16 142.627 111.161 143.893 111.122C144.615 111.099 144.943 111.312 144.89 112.087C144.834 112.901 144.878 113.722 144.879 114.54Z" fill="#F5F5F5"/>
<path d="M113.057 70.9123C113.111 71.482 113.213 72.0518 113.212 72.6215C113.209 74.9209 112.137 76.0002 109.842 76.0614C108.222 76.1046 107.411 75.3258 107.409 73.7249C107.408 72.4962 107.411 71.2673 107.431 70.0388C107.436 69.6936 107.352 69.3213 107.881 69.1743C109.774 68.648 111.833 69.3269 113.087 70.9429L113.057 70.9123Z" fill="#F5F5F5"/>
<path d="M76.3974 69.6938C77.6934 69.0415 79.0893 69.2756 80.4554 69.2252C81.053 69.2031 81.2247 69.4659 81.217 70.0256C81.193 71.7796 81.2049 73.5342 81.2024 75.2885C81.2018 75.6646 81.2214 76.0483 80.6669 76.039C79.6899 76.0226 78.6908 76.1447 77.7401 75.9813C75.6377 75.62 74.6394 72.8473 75.782 70.7316C75.9737 70.3768 76.1966 70.0387 76.4051 69.693L76.3974 69.6938Z" fill="#F5F5F5"/>
<path d="M140.365 18.9676C140.401 16.8807 140.383 14.7909 140.498 12.7084C140.546 11.8352 140.196 11.6224 139.462 11.6316C137.866 11.6518 136.271 11.6747 134.675 11.6788C134.102 11.6802 133.53 11.6308 132.958 11.6045C132.168 11.5014 131.382 11.5362 130.599 11.6645C130.344 11.64 130.09 11.6156 129.835 11.5911C129.252 10.015 129.385 9.80619 130.931 9.80055C134.242 9.78848 137.553 9.79555 140.862 9.73019C141.635 9.7149 141.852 9.9479 141.836 10.6812C141.773 13.5002 141.76 16.3205 141.706 19.1399C141.696 19.6624 141.918 20.4208 141.008 20.4069C140.125 20.3935 140.775 19.6353 140.548 19.2858C140.482 19.1832 140.426 19.0739 140.365 18.9676Z" fill="#F5F5F5"/>
<path d="M91.7131 59.1129C92.3936 60.3972 92.3172 61.791 92.3304 63.1798C92.336 63.7682 92.124 63.968 91.5477 63.9612C89.8263 63.9411 88.1044 63.9594 86.3827 63.9631C85.9882 63.9639 85.6271 63.9252 85.6494 63.3906C85.6887 62.4505 85.6109 61.488 85.7888 60.5751C86.1316 58.8162 88.0172 57.8487 89.9481 58.3689C90.5331 58.5265 91.0851 58.8072 91.6521 59.0314L91.7131 59.1129Z" fill="#F5F5F5"/>
<path d="M99.77 63.9908C99.5651 63.9905 99.327 64.059 99.1607 63.9789C98.3001 63.5644 96.6966 64.9312 96.5037 63.1323C96.1585 59.9126 97.0314 58.5615 99.247 58.2663C101.157 58.012 102.713 59.0271 103.052 60.7478C103.643 63.7498 103.396 63.9934 99.77 63.9908Z" fill="#F5F5F5"/>
<path d="M129.835 11.5908C130.09 11.6154 130.344 11.6397 130.599 11.6642C131.261 12.4518 130.651 13.42 130.967 14.2569C131.004 15.7598 131.041 17.2628 131.079 18.7658C130.813 19.1664 130.855 19.6139 130.893 20.0562C130.929 20.473 130.771 20.6774 130.339 20.6102C130 20.5575 129.524 20.6622 129.557 20.0923C129.721 17.2607 129.375 14.4126 129.836 11.5911L129.835 11.5908Z" fill="#F5F5F5"/>
<path d="M76.4049 69.6937C74.9155 70.7027 74.5593 73.1389 75.6472 74.9294C75.8094 75.1965 76.0092 75.441 76.3218 75.8776C75.7684 75.8776 75.3824 75.8547 75 75.8827C74.3102 75.933 74.0701 75.639 74.0933 74.9509C74.1387 73.6064 74.1171 72.2594 74.116 70.9133C74.1147 69.4193 74.21 69.3244 75.7004 69.4881C75.9364 69.514 76.1632 69.6242 76.3957 69.695L76.4049 69.6937Z" fill="#F5F5F5"/>
<path d="M96.7053 59.1379C96.7053 58.7009 96.7358 58.4558 96.6999 58.2208C96.5573 57.2862 96.8818 56.9099 97.8783 56.9951C98.9304 57.0851 99.9962 57.0138 101.056 57.0124C102.293 57.0109 102.845 57.7042 102.712 59.0924C100.779 57.572 98.8334 57.5814 96.7053 59.1379Z" fill="#F5F5F5"/>
<path d="M91.714 59.1126L91.6531 59.0313C90.2011 57.5669 88.3533 57.5499 85.9345 59.0912C85.9345 58.5751 85.9661 58.1529 85.9271 57.7376C85.8683 57.1111 86.1749 56.9864 86.7261 56.9973C88.1171 57.0247 89.5093 56.9894 90.9001 57.0167C91.2749 57.0241 91.885 56.7871 91.9763 57.2691C92.0885 57.8613 92.4651 58.602 91.714 59.1126Z" fill="#F5F5F5"/>
<path d="M113.087 70.9427C113.321 70.3602 112.706 70.1142 112.589 69.6715C114.255 69.1662 114.466 69.3133 114.453 70.9739C114.444 72.0328 114.428 73.0917 114.427 74.1505C114.426 75.3371 113.776 75.8642 112.477 75.7315C113.346 74.2007 114.141 72.6621 113.06 70.9148C113.057 70.9122 113.087 70.9427 113.087 70.9427Z" fill="#F5F5F5"/>
<path d="M18.8705 20.4845C18.8705 24.9073 18.8426 29.3305 18.8938 33.7527C18.9041 34.639 18.5882 34.8176 17.8348 34.6904C16.5483 34.4732 15.2434 34.4498 13.9628 34.0987C12.1183 33.593 10.2178 34.1288 8.33679 34.019C5.82198 33.8722 5.82393 33.9361 5.8237 31.441C5.82278 23.4142 5.83366 15.3873 5.79404 7.36079C5.78889 6.30655 5.98044 5.87663 7.17962 5.90675C10.7404 5.99639 14.3053 5.9593 17.8681 5.91865C18.6862 5.90938 18.9001 6.17545 18.894 6.9698C18.8596 11.4745 18.8775 15.9796 18.8775 20.4846C18.8752 20.4846 18.8728 20.4845 18.8705 20.4845ZM7.30029 18.9219C6.95293 19.3074 7.10554 19.7784 7.10348 20.211C7.09318 22.4604 7.1115 24.7098 7.10989 26.9593C7.10863 28.6999 7.31965 28.9028 9.11258 28.8932C11.4439 28.8808 13.7752 28.8887 16.1065 28.8707C16.5809 28.867 17.0939 29.0181 17.5112 28.6387C18.0025 28.45 17.9796 28.0206 17.9796 27.6126C17.9796 25.0014 17.967 22.3903 17.9746 19.7791C17.9774 18.7788 17.4627 18.4186 16.5163 18.4242C13.8238 18.4401 11.1312 18.4219 8.43857 18.4223C7.99148 18.4223 7.51691 18.3855 7.30029 18.9219Z" fill="#F5F5F5"/>
<path d="M12.4506 49.8965C12.4092 49.84 12.372 49.8126 12.3699 49.7828C12.2548 48.1451 13.0156 47.3239 14.6522 47.3194C15.4958 47.3173 16.3395 47.3191 17.1831 47.3191C17.1834 47.2134 17.1839 47.1077 17.1842 47.0022C15.889 47.0022 14.5909 46.9495 13.2994 47.0199C12.3788 47.0702 12.3248 46.5883 12.3325 45.89C12.3398 45.2166 12.3371 44.6832 13.275 44.7269C14.5842 44.788 15.8985 44.7424 17.2107 44.7424C17.2061 44.6105 17.2015 44.4786 17.1968 44.3467C15.8744 44.3467 14.5488 44.2902 13.2308 44.3656C12.2721 44.4204 12.2974 43.8846 12.2993 43.2185C12.3013 42.5451 12.3048 42.0258 13.2509 42.0824C14.546 42.1598 15.8491 42.1017 17.1488 42.1017C17.1511 41.9839 17.1534 41.8662 17.1557 41.7484C15.8945 41.7484 14.6289 41.6843 13.3734 41.7695C12.4327 41.8333 12.306 41.4175 12.311 40.6272C12.316 39.8416 12.4413 39.3974 13.3819 39.4517C14.6352 39.5241 15.8957 39.4696 17.1531 39.4696C17.1546 39.3588 17.156 39.2481 17.1575 39.1374C15.8866 39.1374 14.6127 39.0868 13.3454 39.1552C12.491 39.2012 12.3039 38.8531 12.3199 38.0825C12.3351 37.3497 12.3393 36.8077 13.3311 36.8642C14.5751 36.9351 15.8262 36.8812 17.0742 36.8812C17.0761 36.7512 17.0782 36.621 17.0801 36.4909C15.8267 36.4909 14.5715 36.4494 13.3203 36.5016C11.7857 36.5656 12.4288 35.4209 12.3923 34.7765C12.3342 33.7517 13.0537 34.4282 13.4088 34.4628C14.8738 34.6057 16.33 34.8451 17.7963 34.9624C18.4833 35.0173 18.8058 35.1516 18.8019 35.9469C18.7807 40.2871 18.8012 44.6279 18.8515 48.9679C18.8601 49.7073 18.5619 49.9309 17.9182 49.8616C16.5095 49.7099 15.0764 50.033 13.6716 49.5694C13.3339 49.458 12.8537 49.7782 12.4506 49.8965Z" fill="#F5F5F5"/>
<path d="M7.44659 36.8954C8.34157 36.8954 9.24709 36.8111 10.1283 36.9213C10.8722 37.0142 12.0684 36.2337 12.1023 37.9974C12.1363 39.762 10.952 39.0515 10.1926 39.1237C9.27101 39.2113 8.33493 39.1446 7.40503 39.1446C7.404 39.2459 7.40286 39.3472 7.40183 39.4485C8.63101 39.4485 9.86431 39.5108 11.0879 39.4283C12.0229 39.3652 12.0555 39.8536 12.0524 40.5449C12.0493 41.2496 12.0904 41.8459 11.0687 41.7825C9.90015 41.7099 8.72363 41.7656 7.55055 41.7656C7.54895 41.8741 7.54734 41.9825 7.54585 42.0909C8.7392 42.0909 9.9369 42.1538 11.1249 42.0733C12.3245 41.9921 11.999 42.806 12.0764 43.4443C12.1745 44.2523 11.7904 44.3942 11.0795 44.3625C9.87164 44.3086 8.65963 44.3476 7.44934 44.3476C7.4435 44.4736 7.43778 44.5994 7.43194 44.7252C8.56185 44.7252 9.69463 44.7752 10.8207 44.7097C11.7407 44.6561 12.1102 44.8925 12.1011 45.911C12.0926 46.8786 11.7549 47.0901 10.881 47.0372C9.75657 46.9692 8.62506 47.0207 7.50029 47.3031C8.63032 47.3031 9.76058 47.2879 10.8901 47.3117C11.2651 47.3196 11.8559 47.0954 11.9407 47.6313C12.0539 48.3456 11.9534 49.0945 11.9255 49.8277C11.9245 49.855 11.7073 49.9194 11.6135 49.8911C9.98006 49.3988 8.32177 49.9106 6.67675 49.7696C6.06594 49.7172 5.82173 49.5934 5.82505 48.9309C5.8484 44.3037 5.84474 39.6763 5.8223 35.0491C5.81909 34.3908 6.06033 34.2172 6.68797 34.2269C8.32119 34.2523 9.95144 34.5503 11.5879 34.3001C11.7515 34.2751 11.9557 34.2439 11.968 34.454C12.0036 35.0651 12.1286 35.7151 11.9713 36.2811C11.8146 36.8449 11.1914 36.4944 10.7843 36.5085C9.6738 36.5466 8.56117 36.5217 7.44934 36.5217C7.44843 36.6463 7.4475 36.7708 7.44659 36.8954Z" fill="#F5F5F5"/>
<path d="M13.7528 55.5266C15.3563 53.9011 16.9596 52.2757 18.5157 50.6982C19.0194 50.8213 18.8579 51.1247 18.8586 51.329C18.8723 55.0593 18.8751 58.7897 18.8743 62.5202C18.8743 62.9441 19.0407 63.4795 18.2989 63.4788C14.3392 63.4752 10.3796 63.4771 6.15137 63.4771C8.37285 61.1274 10.4049 58.9783 12.4323 56.8337C12.8694 56.4012 13.3111 55.9638 13.7528 55.5266Z" fill="#F5F5F5"/>
<path d="M13.7523 55.5276C13.3106 55.9648 12.869 56.402 12.4319 56.8346C10.4321 58.2027 8.97322 60.1443 7.24657 61.8067C6.84551 62.1928 6.5452 62.6923 5.82745 63.0171C5.82745 62.2094 5.82722 61.4981 5.82745 60.7867C5.82894 57.5985 5.87175 54.4094 5.80844 51.2225C5.78829 50.2106 6.13612 49.9433 7.07655 50.0056C8.01115 50.0676 9.05794 49.716 9.8761 50.0234C12.6507 51.0657 15.4628 49.4304 18.3277 50.4188C17.291 51.487 16.2517 52.5448 15.2282 53.6178C14.6712 54.2017 14.0169 54.7156 13.7523 55.5276Z" fill="#F5F5F5"/>
<path d="M25.9096 117.886C19.599 117.886 13.2882 117.866 6.97789 117.909C6.05279 117.915 5.80813 117.671 5.82049 116.753C5.86686 113.311 5.84408 109.868 5.80034 106.427C5.79027 105.635 5.91438 105.278 6.84485 105.281C19.5072 105.316 32.1696 105.316 44.8319 105.296C45.6594 105.295 45.9763 105.486 45.9645 106.375C45.9184 109.857 45.9163 113.341 45.9651 116.824C45.9776 117.715 45.668 117.901 44.8414 117.897C38.531 117.866 32.2203 117.88 25.9096 117.88C25.9096 117.882 25.9096 117.884 25.9096 117.886ZM32.5981 116.626C32.628 116.59 32.6601 116.557 32.6941 116.526C33.0686 116.245 33.0988 115.821 33.0994 115.418C33.1023 112.922 33.0855 110.425 33.076 107.929C33.0717 106.799 32.3958 106.472 31.3929 106.471C28.3221 106.47 25.2513 106.434 22.1807 106.442C20.7771 106.446 20.3847 106.891 20.3849 108.316C20.3851 110.567 20.3901 112.819 20.3823 115.071C20.3765 116.778 20.5735 117.002 22.2402 116.998C25.2697 116.992 28.2993 116.976 31.3288 116.954C31.7725 116.95 32.2394 116.982 32.5981 116.626Z" fill="#F5F5F5"/>
<path d="M12.1627 98.1674C10.3606 98.1681 8.55797 98.1424 6.75679 98.1813C6.06995 98.1961 5.83639 97.9893 5.84395 97.2817C5.87268 94.62 5.85712 91.9574 5.82254 89.2956C5.81384 88.622 6.01042 88.3535 6.72588 88.3586C10.4117 88.3852 14.098 88.3848 17.7838 88.3546C18.5558 88.3483 18.7465 88.6377 18.7331 89.369C18.6865 91.9075 18.6517 94.4486 18.7216 96.9859C18.75 98.017 18.3595 98.2152 17.4456 98.1843C15.6866 98.1246 13.9238 98.1668 12.1627 98.1674Z" fill="#F5F5F5"/>
<path d="M58.9338 10.7535C58.9684 10.7755 59.007 10.8211 59.0371 10.816C61.2345 10.4493 61.221 10.449 61.2166 12.7565C61.2031 19.9302 61.176 27.104 61.2209 34.2775C61.2275 35.3405 60.91 35.5575 59.9126 35.54C56.6344 35.4823 53.3538 35.5044 50.0751 35.5532C49.1578 35.5668 48.79 35.3543 48.798 34.3372C48.8575 26.7547 48.8682 19.1718 48.859 11.5892C48.858 10.7533 49.0817 10.4229 49.9556 10.4454C51.6898 10.4902 53.4257 10.4458 55.1533 10.6651C55.8211 10.7498 55.5968 11.282 55.5972 11.6133C55.5979 12.2867 55.8328 12.4423 56.3908 12.1119C57.2227 11.6195 58.2189 11.4357 58.9442 10.7462L58.9338 10.7535ZM49.4412 24.0506H49.4363C49.4363 27.2039 49.4387 30.3571 49.4341 33.5104C49.4333 34.068 49.4055 34.5249 50.225 34.5584C53.0097 34.6719 55.7924 34.6435 58.5766 34.5979C59.2503 34.5868 59.5981 34.4084 59.5945 33.6079C59.5658 27.2607 59.5682 20.9133 59.6008 14.5661C59.6053 13.7075 59.2489 13.5514 58.503 13.5619C56.1692 13.5946 53.8347 13.5741 51.5004 13.5711C51.1322 13.5707 50.5994 13.7068 50.4248 13.5184C49.7383 12.7771 49.6371 13.584 49.5268 13.8684C49.3868 14.2297 49.4444 14.6736 49.4437 15.082C49.4391 18.0715 49.4412 21.0611 49.4412 24.0506Z" fill="#F5F5F5"/>
<path d="M57.0607 5.92528C59.3923 5.92528 61.7241 5.94428 64.0553 5.91337C64.7299 5.90444 64.9601 6.10171 64.9801 6.8087C65.0752 10.1483 65.0975 10.1547 61.8226 10.1518C57.855 10.1483 53.8874 10.1152 49.9199 10.134C49.1536 10.1376 48.8592 9.94954 48.8482 9.11673C48.806 5.94257 48.7752 5.94153 51.9066 5.93615C53.6246 5.93318 55.3426 5.93558 57.0607 5.93558V5.92528Z" fill="#F5F5F5"/>
<path d="M72.3274 9.65104C73.7692 11.1517 74.1172 12.8682 73.3101 14.7917C72.8697 15.8415 72.1509 16.5955 70.9278 16.5746C69.7089 16.5537 69.0155 15.7856 68.5972 14.7227C68.1779 13.6573 68.1809 12.5462 68.4683 11.4735C68.9211 9.78328 70.2037 9.2328 72.3687 9.69043L72.3274 9.65104Z" fill="#F5F5F5"/>
<path d="M69.7203 35.504C68.2869 35.504 66.8528 35.4767 65.4205 35.5173C64.8374 35.5338 64.5923 35.3672 64.6273 34.7698C64.6583 34.2393 64.6291 33.7053 64.6256 33.1726C64.6043 29.9408 65.6786 28.6666 68.8939 28.1967C70.3951 27.9774 71.8357 28.2484 73.1589 29.0033C74.3865 29.7037 75.1413 30.7136 75.0187 32.2008C74.929 33.2887 75.5301 34.7383 74.7788 35.3622C74.1444 35.8891 72.7464 35.4993 71.6862 35.5093C71.0309 35.5155 70.3756 35.5105 69.7203 35.5105C69.7203 35.5083 69.7203 35.5061 69.7203 35.504ZM69.6189 28.6751C68.9258 28.7308 68.2355 28.7956 67.5821 29.067C66.3016 29.5986 65.5697 30.5869 65.6285 31.7451C65.6987 33.1277 66.6355 33.6977 67.8064 34.0507C68.3572 34.2167 68.9448 34.199 69.1986 34.9924C69.3387 35.4304 70.3394 35.3895 70.4384 35.0179C70.7026 34.0263 71.489 34.1814 72.1235 33.9506C73.0471 33.6147 73.8463 33.0891 74.0089 32.0462C74.178 30.9616 73.5943 30.1683 72.7565 29.5562C71.8245 28.8753 70.7321 28.7325 69.6189 28.6751Z" fill="#F5F5F5"/>
<path d="M70.9068 8.20868C70.0494 8.20868 69.1902 8.17227 68.3354 8.21944C67.5676 8.2618 67.4193 7.85078 67.51 7.23813C67.5878 6.71239 67.2325 5.93922 68.303 5.9643C70.0578 6.0054 71.8147 5.99395 73.5698 5.96224C74.5439 5.9446 74.2856 6.63843 74.3141 7.1541C74.3424 7.66645 74.4698 8.26283 73.6012 8.23089C72.7042 8.19803 71.805 8.22356 70.9068 8.22356C70.9068 8.21852 70.9068 8.21372 70.9068 8.20868Z" fill="#F5F5F5"/>
<path d="M72.3687 9.69101C71.0936 8.69997 70.0919 8.86541 68.5715 10.3182C68.1147 8.78229 68.2592 8.56098 69.7727 8.54277C70.507 8.53396 71.242 8.54735 71.976 8.57013C73.6656 8.62268 73.6654 8.6275 73.492 10.3693C72.9985 10.2922 72.9153 9.54618 72.3263 9.65071L72.3687 9.69101Z" fill="#F5F5F5"/>
<path d="M58.9442 10.7455C58.0851 10.8735 57.3591 11.3578 56.5567 11.6377C56.2706 11.7376 55.9021 12.013 55.8453 11.4351C55.8098 11.0732 55.6221 10.5318 56.2878 10.5274C57.1714 10.5217 58.0783 10.3304 58.9303 10.7548C58.9339 10.7529 58.9442 10.7455 58.9442 10.7455Z" fill="#F5F5F5"/>
<path d="M32.6937 116.526C32.6596 116.557 32.6276 116.59 32.5977 116.625C31.0292 116.637 29.4603 116.636 27.8922 116.669C27.3769 116.68 26.9416 116.572 26.5982 116.176C27.0307 116.435 27.4962 116.457 27.7162 115.978C28.0369 115.281 27.2053 115.231 26.9502 114.846C28.2174 114.862 29.4847 114.89 30.7519 114.888C31.4559 114.888 32.1828 114.668 32.2215 113.89C32.3108 112.093 32.2499 110.289 32.2499 108.488C31.9578 109.867 31.9518 111.244 31.9593 112.62C31.9688 114.375 31.7901 114.529 29.991 114.559C28.9874 114.576 27.9417 114.303 26.9978 114.885C26.644 114.954 26.2956 115.052 26.0339 115.318C25.8263 115.529 25.7065 115.799 25.8797 116.074C26.0742 116.384 26.337 116.528 26.6482 116.187C26.3114 116.446 26.0083 116.695 25.5115 116.677C24.2848 116.633 23.0546 116.65 21.8271 116.683C20.9812 116.706 20.6668 116.334 20.678 115.502C20.7111 113.045 20.6966 110.588 20.7057 108.132C20.7091 107.237 21.1387 106.772 22.0629 106.776C25.216 106.79 28.3691 106.798 31.5222 106.797C32.4681 106.797 32.859 107.317 32.8468 108.185C32.8075 110.966 32.7464 113.746 32.6937 116.526ZM25.9679 114.874C25.9572 114.812 25.9466 114.749 25.9359 114.687C25.8293 114.634 25.7238 114.537 25.6158 114.534C24.8388 114.513 24.0611 114.511 23.2837 114.503C21.7338 114.486 21.5722 114.329 21.5573 112.825C21.5508 112.17 21.5784 111.512 21.5318 110.86C21.471 110.007 21.7047 109.119 21.2784 108.304C21.2017 110.017 21.1817 111.725 21.2093 113.432C21.2254 114.434 21.7878 114.898 22.7913 114.879C23.8498 114.858 24.9089 114.874 25.9679 114.874Z" fill="#F5F5F5"/>
<path d="M54.4309 24.487C52.9751 26.6592 52.1145 29.1325 50.9193 31.4366C50.6051 32.0423 50.3446 32.6758 49.8418 33.2529V14.7822C50.7767 15.9583 50.9709 17.3978 51.8462 18.4585L51.808 18.4243C52.2869 20.0575 53.1951 21.5012 53.8516 23.056C54.0533 23.5334 54.2399 24.0172 54.4334 24.4981L54.4309 24.487Z" fill="#F5F5F5"/>
<path d="M51.8463 18.4582C51.6898 17.1841 50.9347 16.1531 50.4261 15.0253C50.0682 14.2315 50.0782 13.8454 51.1071 13.8618C53.4267 13.8987 55.7474 13.8878 58.0674 13.8616C59.0172 13.8508 59.2381 14.1514 58.7317 14.9875C58.4838 15.3967 58.2123 15.8201 58.2056 16.334L58.2428 16.3003C57.0616 18.1148 56.3492 20.1633 55.3649 22.0761C55.1089 22.5737 54.9876 23.1495 54.4788 23.577C53.8017 22.1457 53.1556 20.7476 52.4755 19.3662C52.3082 19.0265 52.3075 18.5419 51.8094 18.4248C51.808 18.4238 51.8463 18.4582 51.8463 18.4582Z" fill="#F5F5F5"/>
<path d="M54.4335 24.498C56.092 27.4417 57.3088 30.5994 58.848 33.6003C59.1 34.0917 58.9915 34.267 58.4663 34.2667C55.6954 34.265 52.9243 34.2659 49.9668 34.2659C51.2571 31.5467 52.4815 28.9823 53.6891 26.41C53.9805 25.7894 54.406 25.2153 54.4308 24.4884L54.4335 24.498Z" fill="#F5F5F5"/>
<path d="M58.2064 16.3348C58.7802 16.105 58.6961 15.3786 59.2357 14.9404V33.2521C58.7974 32.9762 58.7074 32.5324 58.5313 32.1657C57.3834 29.7752 56.2717 27.367 55.0929 24.992C54.7824 24.3665 54.828 23.89 55.1315 23.286C56.1209 21.3174 57.0546 19.3204 57.9823 17.3215C58.1267 17.0103 58.43 16.707 58.245 16.2997C58.2435 16.301 58.2064 16.3348 58.2064 16.3348Z" fill="#F5F5F5"/>
<path d="M69.8573 29.0521C70.8785 29.0008 71.8708 29.3257 72.7421 30.0001C73.6971 30.7393 73.9398 31.6922 73.4245 32.57C72.9134 33.4405 71.2284 34.1164 70.4119 33.7925C70.1924 33.7055 70.0422 33.6189 70.1744 33.3619C70.3449 33.0306 70.2799 32.7847 69.8885 32.755C69.5378 32.7283 69.3701 32.9663 69.3855 33.3019C69.3987 33.5901 69.2867 33.7471 69.0151 33.8464C68.3368 34.0942 66.8042 33.5132 66.2943 32.7707C65.6711 31.8634 65.8005 30.9963 66.5155 30.2038C67.1936 29.4522 68.3566 29.0536 69.8573 29.0521Z" fill="#F5F5F5"/>
</g>
<defs>
<clipPath id="clip0_7286_191">
<rect width="150" height="123" fill="white"/>
</clipPath>
</defs>
</svg>
